<svg xmlns="http://www.w3.org/2000/svg" xmlns:xlink="http://www.w3.org/1999/xlink"><symbol id="arrow" viewBox="0 0 2410 2120"><path d="M2320 1020 1380 80c-20-10-40-20-50-10-20 10-30 30-30 50v520H120c-30 0-50 20-50 40v760c0 20 20 50 50 50h1180v510c0 20 10 40 30 50h10c20 0 30 0 40-10l940-950c10-10 20-20 20-30s-10-30-20-40z" style="fill-rule:nonzero;stroke-linecap:round;stroke-linejoin:round;stroke-miterlimit:22.9256"/></symbol><symbol id="logo" viewBox="0 0 141917 44920"><path d="M40397 20756c0 1952-806 3098-5886 3377-5081 310-5918-744-5918-2695v-2355c0-1982 837-3098 5918-3408 5080-278 5886 744 5886 2727v2354zm62795-17658H35347l217 279c-186 247-341 526-403 836l-898 186v960l898 186c93 279 217 558 403 806l-93 155 1084-62 66637-3346zM28315 6413c-744 743-1952 743-2726 0-744-744-744-1983 0-2726 743-744 1982-744 2726 0 774 743 774 1982 0 2726zm2416-4245-898-898-899 557c-341-216-712-340-1084-433l-248-1023h-1270l-248 1023c-403 93-743 217-1084 433l-899-526-898 898 527 899c-186 341-341 681-434 1084l-1023 248v1270l1023 248c93 372 248 743 434 1084l-527 898 898 899 899-558c341 217 713 372 1084 465l248 1022h1270l248-1053c372-62 743-217 1084-434l899 558 898-899-557-898c216-341 371-713 464-1115l1023-248V4430l-1023-279c-93-372-248-744-464-1084l557-899zM17689 7218c-1053 527-2386 93-2912-991-527-1084-93-2386 991-2912 1053-558 2385-124 2912 960s93 2386-991 2943zm4089-3686-619-1271-1178 248c-278-340-619-650-991-867l93-1177L17720 0l-620 1022c-434-62-898-30-1332 93l-774-929-1271 650 248 1147c-340 310-619 650-867 1022l-1177-124-465 1363 1022 651c-30 434 0 867 93 1301l-929 775 651 1301 1177-279c279 341 619 651 991 867l-93 1209 1363 433 620-991c434 31 898 0 1332-93l775 899 1270-651-279-1146c372-279 650-620 898-992l1178 93 464-1363-1022-619c31-465 0-899-93-1332l898-775zM5607 7962c-1270 0-2324-1023-2324-2293s1054-2292 2324-2292 2292 1022 2292 2292-1022 2293-2292 2293zm5576-1518V4926l-1208-310c-124-465-310-899-527-1301l651-1054-1084-1084-1085 651c-371-248-805-434-1270-527L6351 62H4833l-279 1239c-465 93-899 279-1301 527l-1085-651-1053 1084 651 1054c-248 402-434 836-558 1301L0 4926v1518l1208 278c124 465 310 899 558 1302l-651 1084 1053 1053 1085-651c402 248 836 434 1301 527l279 1239h1518l309-1239c465-93 899-279 1270-527l1085 651 1084-1053-651-1084c217-403 403-837 527-1302l1208-278zm130734 20229-99940 5763h99940v-5763zm-36525-10750c-4213 248-4523-464-4523-1858 0-1425 310-2138 4523-2386l5297-309v4244l-5297 310v-1zm1270-8333c-3377 186-10719 743-10719 6320v867c0 2695 1673 3997 3810 4647l-3345 5050 5762-341 2788-4213c713 0 1394-31 1921-62l3810-248v4058l5050-309V7063l-9077 527zm-22305 9542-5298 309v-4244l5298-310c4213-248 4492 465 4492 1859 0 1425-279 2138-4492 2385v1zm-1302-8179-9046 527v16295l5050-279v-4027l3811-248c3283-186 10935-619 10935-6320v-867c0-5577-7342-5267-10750-5081zm42164 9851v-5235c0-1952 805-3098 5886-3377l4306-248v8272l-10192 588zm15242-898V5638l-9449 527c-3315 217-10843 681-10843 6320v6598l-1456 93v4027l23204-1363v-3996l-1456 62zm-86495 5019v-5236c0-1952 836-3098 5917-3377l4306-247v8271l-10223 589zM69208 9758l-9418 527c-3315 217-10874 682-10874 6320v6599l-1456 92v4028l23235-1363v-3997l-1487 62V9758zM1084 13693v16295l5049-279V17411l9976-589v12299l5018-279V12516L1084 13693zm33427-2014c-3284 186-10936 620-10936 6320v5081c0 5700 7652 5266 10936 5080s10935-650 10935-6320v-5111c0-5701-7651-5267-10935-5050zM8829 44053l-310-589c-496 372-1146 651-1766 651-1363 0-1921-1673-1921-2819 0-1178 496-2944 1921-2944 619 0 1270 279 1766 651l310-619c-651-496-1270-837-2138-837-2014 0-2850 2014-2850 3749 0 1765 867 3624 2850 3624 867 0 1487-341 2138-867zm4832 681v-5049h-929l-2107 3810v-3810h-960v5049h960l2107-3810v3810h929zm4895-495-248-465c-402 279-805 434-1332 434-960 0-1549-992-1549-1859 0-960 341-2169 1549-2169 527 0 930 155 1332 465l217-496c-465-433-991-619-1611-619-1580 0-2354 1394-2354 2819 0 1363 929 2540 2354 2540 620 0 1146-278 1642-650zm4554-3935v-619h-4151v619h1611v4430h898v-4430h1642zm4244 1642c0-1146-340-2416-1796-2416-1673 0-2231 1549-2231 2788 0 1270 558 2571 2200 2571 712 0 1208-341 1765-681l-185-465c-558 310-1085 496-1580 496-1209 0-1271-1208-1271-2045l3098-248zm-898-588c0 62 0 123-31 185h-2107c62-650 465-1363 1209-1363 650 0 929 589 929 1178zm7125 3376-310-5049h-1084l-1301 3284-1301-3284h-1084l-310 5049h681l279-3903 1363 3563h496l1425-3532 248 3872h898zm6196 0v-5049h-898v5049h898zm-1518-1611c0-1084-836-1642-1890-1642h-929v-1796h-898v5049h1827c992 0 1890-619 1890-1611zm-898-31c0 620-496 1023-1084 1023h-837v-1983h837c619 0 1084 310 1084 961v-1zm10347-774c0-1239-682-2509-2231-2509-836 0-1456 402-1796 1115 31-991 371-2169 1456-2417 743-185 1518-309 2323-495l-124-744c-774 124-1580 279-2323 434-1828 372-1983 2231-1983 3873v743c0 1239 775 2571 2354 2571 1550 0 2324-1332 2324-2571zm-898 0c0 774-496 1921-1426 1921-960 0-1456-1147-1456-1921 0-837 527-1859 1488-1859 960 0 1394 1054 1394 1859zm5607-372c0-1146-310-2416-1797-2416-1642 0-2199 1549-2199 2788 0 1270 557 2571 2168 2571 713 0 1239-341 1797-681l-186-465c-557 310-1084 496-1611 496-1177 0-1270-1208-1270-2045l3098-248zm-868-588c0 62-30 123-30 185h-2138c93-650 465-1363 1208-1363 682 0 960 589 960 1178zm4864 1982c0-681-495-1115-1115-1270 558-124 991-619 991-1239 0-929-960-1301-1766-1301-650 0-1146 186-1641 589l185 464c434-310 837-434 1364-434 371 0 960 248 960 713 0 619-527 929-1115 929h-527v620h527c588 0 1239 279 1239 929 0 558-558 899-1084 899-558 0-930-124-1363-403l-217 465c557 371 1022 588 1673 588 929 0 1889-557 1889-1549zm5484-1115c0-1332-682-2695-2355-2695s-2385 1363-2385 2695 712 2664 2385 2664 2355-1332 2355-2664zm-899 0c0 929-341 2014-1456 2014s-1456-1084-1456-2014c0-929 341-2045 1456-2045s1456 1116 1456 2045zm5731 2509v-5049h-3934v5049h899v-4430h2137v4430h899-1zm4709 0v-3314c0-1085-619-1890-1890-1890-619 0-1208 217-1734 496l186 464c464-186 1022-310 1425-310 867 0 1115 465 1115 1240-1239 0-2974 526-2974 1982 0 775 651 1425 1518 1425 619 0 1053-216 1456-650v557h898zm-898-1084c-248 341-867 558-1301 558-465 0-744-403-744-837 0-1053 1147-1363 2045-1363v1642zm5731 589-217-465c-434 279-836 434-1363 434-960 0-1518-992-1518-1859 0-960 310-2169 1518-2169 527 0 929 155 1363 465l217-496c-496-433-991-619-1642-619-1580 0-2354 1394-2354 2819 0 1363 960 2540 2354 2540 620 0 1177-278 1642-650zm4709 495v-5049h-899v2137h-2168v-2137h-899v5049h899v-2354l2168 186v2168h899zm5607-2509c0-1332-681-2695-2354-2695s-2386 1363-2386 2695 713 2664 2386 2664 2354-1332 2354-2664zm-898 0c0 929-341 2014-1456 2014-1116 0-1487-1084-1487-2014 0-929 371-2045 1487-2045 1084 0 1456 1116 1456 2045zm5669 2014-217-465c-434 279-836 434-1363 434-960 0-1518-992-1518-1859 0-960 341-2169 1518-2169 527 0 929 155 1363 465l217-496c-496-433-991-619-1642-619-1580 0-2354 1394-2354 2819 0 1363 960 2540 2354 2540 620 0 1177-278 1642-650zm4554-3935v-619h-4151v619h1642v4430h898v-4430h1611zm4647 4430v-5049h-961l-2106 3810v-3810h-930v5049h961l2107-3810v3810h929zm7373 0v-5049h-960l-2107 3810v-3810h-929v5049h960l2107-3810v3810h929zm7280-495-248-465c-433 279-836 434-1363 434-960 0-1518-992-1518-1859 0-960 341-2169 1518-2169 527 0 930 155 1363 465l217-496c-464-433-991-619-1642-619-1580 0-2354 1394-2354 2819 0 1363 960 2540 2354 2540 651 0 1178-278 1673-650zm4647-961c0-712-557-1115-1208-1208 589-93 1053-588 1053-1208 0-867-836-1177-1611-1177h-2137v5050h2137c868 0 1766-496 1766-1456v-1zm-1053-2230c0 465-403 743-837 743h-1146v-1518h1146c434 0 837 279 837 775zm186 2230c0 558-527 868-1023 868h-1146v-1735h1146c496 0 1023 279 1023 867zm5297 1456v-5049h-1920c-1023 0-1766 619-1766 1580 0 743 402 1301 1053 1487l-1084 1982h929l1023-1858h867v1858h898zm-898-2478h-960c-527 0-930-465-930-991 0-496 403-992 930-992h960v1983zm5297 1084c0-681-495-1115-1115-1270 589-124 991-619 991-1239 0-929-960-1301-1765-1301-651 0-1147 186-1642 589l186 464c433-310 836-434 1363-434 372 0 960 248 960 713 0 619-527 929-1115 929h-527v620h527c588 0 1239 279 1239 929 0 558-557 899-1084 899s-929-124-1363-403l-217 465c557 371 1022 588 1673 588 929 0 1890-557 1890-1549h-1zm4864 1394v-5049h-960l-2107 3810v-3810h-929v5049h960l2107-3810v3810h929z"/></symbol><symbol id="viber" viewBox="0 0 504 504"><path d="M377.6 0H126C56.8 0 0 56.8 0 126.4V378c0 69.2 56.8 126 126 126h251.6c69.6 0 126.4-56.8 126.4-126.4V126.4C504 56.8 447.2 0 377.6 0zM238.4 103.6c.8-12.4 12.4-8 18.4-8.8 75.2 2.4 140 70 139.2 142.8 0 7.2 2.4 17.6-8.4 17.6-10.4 0-7.6-10.8-8.8-18-10-77.2-46-113.6-124.4-125.6-6.4-.8-16.4.4-16-8zm112.4 137.2c-12 1.6-9.6-8.8-10.8-15.6-8-47.2-24.8-64.4-73.2-74.8-7.2-1.6-18.4-.4-16.4-11.2 1.6-10.4 11.6-6.8 19.2-6 48.4 5.6 88 46.8 87.6 92-.8 4.8 2.4 14-6.4 15.6zm-30-24.8c0 6.4-.8 12.4-8 13.2-5.2.8-8.4-3.6-9.2-8.8-2-19.2-12.4-30.8-32.4-34-6-.8-11.6-2.8-8.8-10.8 2-5.2 6.8-6 12-6 21.6-.4 46.4 24.8 46.4 46.4zm76 147.6c-8.4 22.8-36.8 46-61.2 45.6-3.6-.8-10.4-2-16.4-4.4C212 359.6 134 285.2 90 178.8c-14.8-35.6.8-66 38-78 6.8-2.4 13.2-2.4 20 0 16 5.6 56.4 60.4 57.2 76.4.8 12.4-8 19.2-16.4 24.8-16.4 10.8-16.4 24.4-9.2 40 15.6 34.4 42.4 58.4 77.2 73.6 12.4 5.6 24.8 5.2 33.2-7.6 15.2-22.8 34-21.6 54.4-7.6 10.4 7.2 20.8 14 30.4 21.6 13.2 10.8 30 19.6 22 41.6z"/></symbol><symbol id="youtube" viewBox="0 0 504 504"><path d="M219.6 202.4v92l84.8-45.6z"/><path d="M377.6 0H126C56.8 0 0 56.8 0 126.4V378c0 69.2 56.8 126 126 126h251.6c69.6 0 126.4-56.8 126.4-126.4V126.4C504 56.8 447.2 0 377.6 0zM408 264.4c0 26.4-2.4 53.2-2.4 53.2s-2.8 22.4-12 32.4c-12 13.2-25.2 13.2-31.2 14-44 3.2-110 3.6-110 3.6s-82-1.2-107.2-3.6c-6.8-1.2-22.8-.8-34.8-14-9.6-10-12-32.4-12-32.4S96 290.8 96 264.4v-24.8c0-26.4 2.4-53.2 2.4-53.2s2.8-22.4 12-32.4c12-13.2 25.2-13.6 31.2-14.4C186 136.4 252 136 252 136s66 .4 110 3.6c6 .8 19.6 1.2 31.6 14 9.6 10 12 32.8 12 32.8s2.4 26.8 2.4 53.2v24.8z"/></symbol><symbol id="whatsapp" viewBox="0 0 504.4 504.4"><path d="M254.8 119.4c-71.6 0-129.6 57.6-129.6 128.8 0 28 9.2 54.4 24.8 75.6l-16.4 48 50-16c20.4 13.6 45.2 21.2 71.6 21.2 71.6 0 130-57.6 130-128.8-.4-71.2-58.8-128.8-130.4-128.8zm76 182c-3.2 8.8-18.8 17.2-25.6 18s-6.8 5.6-45.6-9.2c-38.4-15.2-62.8-54-64.8-56.8-2-2.4-15.6-20.4-15.6-38.8s9.6-27.6 13.2-31.2c3.6-3.6 7.6-4.8 10-4.8 2.4 0 5.2.4 7.2.4 2.4 0 5.2-1.2 8.4 6.4 3.2 7.6 10.8 26 11.6 28s1.6 4 .4 6.4c-1.2 2.4-2 4-3.6 6.4-2 2-4 4.8-5.6 6.4-2 2-4 4-1.6 7.6 2.4 3.6 10 16 21.2 26 14.4 12.8 26.8 16.8 30.4 18.8 3.6 2 6 1.6 8-.8 2.4-2.4 9.6-10.8 12-14.8 2.4-3.6 5.2-3.2 8.4-2 3.6 1.2 22 10.4 26 12.4 3.6 2 6.4 2.8 7.2 4.4 1.2.8 1.2 8.4-1.6 17.2z"/><path d="M377.6.2H126.4C56.8.2 0 57 0 126.6v251.6c0 69.2 56.8 126 126.4 126H378c69.6 0 126.4-56.8 126.4-126.4V126.6C504 57 447.2.2 377.6.2zM254.8 401.4c-27.2 0-52.4-6.8-74.8-19.2l-85.6 27.2 28-82c-14-23.2-22-50.4-22-79.2 0-84.8 69.2-153.2 154.4-153.2s154.4 68.4 154.4 153.2S340 401.4 254.8 401.4z"/></symbol><symbol id="mail" viewBox="0 0 478.035 478.035"><path d="M234.322 262.742a8.534 8.534 0 0 0 10.155 0l51.712-49.323L435.794 80.385l33.109-31.573a25.599 25.599 0 0 0-16.555-6.059H25.682a25.602 25.602 0 0 0-17.067 6.144L181.842 213.42l52.48 49.322zM.082 375.553l163.499-156.16L.082 64.257a25.694 25.694 0 0 0 0 4.096v307.2z"/><path d="M256.082 275.713a26.878 26.878 0 0 1-17.067 5.973 24.918 24.918 0 0 1-12.373-3.328 25.498 25.498 0 0 1-3.669-2.475l-47.019-44.715L.082 398.849v10.837c0 14.138 11.462 25.6 25.6 25.6h429.909c12.859-1.642 22.462-12.637 22.357-25.6v-11.008L302.503 231.51l-46.421 44.203zM477.949 64.086 314.45 219.649l163.499 155.477V68.353a26.43 26.43 0 0 0 0-4.267z"/></symbol><symbol id="btn-arrow" viewBox="0 0 14510 4020"><path d="M4580 1940 2660 30c-30-30-70-40-110-20-30 10-60 50-60 90v1050H100c-60 0-100 40-100 100v1530c0 50 40 100 100 100h2390v1050c0 40 30 70 60 90h40c20 0 50-10 70-30l1920-1910c10-20 20-50 20-70 0-30-10-50-20-70z"/><circle cx="7250" cy="2010" r="1880"/><path d="m9930 2080 1920 1910c30 30 70 40 110 30 30-20 60-50 60-90V2870h2390c60 0 100-40 100-90V1240c0-50-40-90-100-90h-2390V100c0-40-30-80-60-90-10-10-30-10-40-10-20 0-50 10-70 30L9930 1950c-10 10-20 40-20 60 0 30 10 50 20 70z"/></symbol><symbol id="stopwatch" viewBox="0 0 508.629 508.629"><path d="m451.73 155.367 10.401-12.099 10.136 8.715a7.5 7.5 0 0 0 10.577-.798l16.103-18.73a7.5 7.5 0 0 0-.798-10.576l-55.383-47.614a7.469 7.469 0 0 0-5.454-1.792 7.5 7.5 0 0 0-5.123 2.589l-16.103 18.73a7.5 7.5 0 0 0 .798 10.576l10.136 8.715-11.197 13.024c-22.936-14.65-49.037-24.764-77.03-29.059V74.386h25.83c12.056 0 21.863-9.808 21.863-21.864v-17.45c0-12.056-9.808-21.864-21.863-21.864H251.94c-12.056 0-21.864 9.808-21.864 21.864v17.45c0 12.056 9.808 21.864 21.864 21.864h25.831v22.662c-28.545 4.38-55.119 14.816-78.38 29.936l-11.951-13.901 10.137-8.715a7.504 7.504 0 0 0 .797-10.577l-16.103-18.73a7.5 7.5 0 0 0-10.577-.797l-55.382 47.614a7.504 7.504 0 0 0-.797 10.577l16.103 18.73a7.483 7.483 0 0 0 5.69 2.61 7.47 7.47 0 0 0 4.886-1.813l10.136-8.714 11.387 13.244a201.657 201.657 0 0 0-26.128 33.784 7.538 7.538 0 0 0-.771-.039H89.455a7.5 7.5 0 0 0 0 15h39.779a199.2 199.2 0 0 0-10.304 24.356H43.151a7.5 7.5 0 0 0 0 15h71.226a199.189 199.189 0 0 0-5.591 32.097H7.5a7.5 7.5 0 0 0 0 15h100.479c-.019 1.121-.043 2.24-.043 3.366 0 9.755.715 19.345 2.069 28.731H36.151a7.5 7.5 0 0 0 0 15h76.606a198.365 198.365 0 0 0 7.099 24.355H82.455a7.5 7.5 0 0 0 0 15h43.54c31.63 69.119 101.439 117.26 182.288 117.26 42.227 0 82.614-12.984 116.796-37.548a7.5 7.5 0 0 0-8.754-12.18c-31.615 22.72-68.976 34.729-108.042 34.729-102.201 0-185.347-83.146-185.347-185.346 0-102.201 83.146-185.347 185.347-185.347 49.473 0 94.481 19.485 127.754 51.183.068.072.144.138.215.208 35.335 33.77 57.377 81.337 57.377 133.956 0 49.568-19.32 96.154-54.402 131.174a7.5 7.5 0 0 0-.009 10.607 7.5 7.5 0 0 0 10.606.009c37.921-37.855 58.805-88.21 58.805-141.791 0-54.288-21.713-103.591-56.899-139.709zm-13.055-64.839 44.009 37.835-6.324 7.355-44.009-37.835zm-.279 32.334 12.361 10.627-9.9 11.516c-4.07-3.6-8.28-7.046-12.634-10.311zM275.114 59.386V28.208h12.112v31.178zm27.112-31.178h12.112v31.178h-12.112zm27.112 31.178V28.208h12.113v31.178zm42.15-24.314v17.45a6.871 6.871 0 0 1-6.863 6.864h-8.173V28.208h8.173a6.871 6.871 0 0 1 6.863 6.864zm-126.411 17.45v-17.45a6.872 6.872 0 0 1 6.864-6.864h8.173v31.178h-8.173a6.872 6.872 0 0 1-6.864-6.864zm-106.975 83.197-6.324-7.355 44.008-37.835 6.324 7.355-10.135 8.714-.002.001-23.735 20.406-.002.002zm25.827-2.423 12.136-10.434 11.009 12.805a201.623 201.623 0 0 0-12.559 10.397l-10.811-12.574zm128.842-37.972V74.386h31.023v20.939a202.143 202.143 0 0 0-31.023-.001z"/><path d="M245.469 158.435a7.501 7.501 0 0 0-10.121-3.173c-45.598 23.834-76.784 68.484-83.424 119.438-11.235 86.216 49.767 165.499 135.983 176.733a158.13 158.13 0 0 0 20.486 1.333c77.949-.007 145.909-57.988 156.247-137.316 5.442-41.765-5.705-83.149-31.39-116.53-25.684-33.38-62.829-54.761-104.595-60.204-20.376-2.656-40.697-1.375-60.403 3.803a7.501 7.501 0 0 0 3.812 14.508 141.367 141.367 0 0 1 28.717-4.458v19.705c0 4.142 3.357 7.5 7.5 7.5s7.5-3.358 7.5-7.5v-19.687c3.641.197 7.287.527 10.937 1.002 29.208 3.806 55.915 16.234 77.272 35.625l-13.583 13.582a7.498 7.498 0 0 0-.001 10.606 7.476 7.476 0 0 0 5.304 2.197 7.474 7.474 0 0 0 5.303-2.197l13.544-13.544a145.74 145.74 0 0 1 6.806 8.207c17.933 23.307 28.025 50.927 29.441 79.689H432.2c-4.143 0-7.5 3.358-7.5 7.5s3.357 7.5 7.5 7.5h18.563a145.295 145.295 0 0 1-.997 10.755c-3.864 29.649-16.627 55.997-35.241 76.719l-12.849-12.849a7.5 7.5 0 0 0-10.607 10.606l12.863 12.863c-23.623 21.33-54.212 34.716-87.214 36.658v-18.335c0-4.142-3.357-7.5-7.5-7.5s-7.5 3.358-7.5 7.5v18.427a143.39 143.39 0 0 1-11.872-1.042c-29.323-3.821-55.421-16.343-76.038-34.625l13.284-13.284c2.929-2.929 2.929-7.677 0-10.606s-7.678-2.929-10.606 0l-13.36 13.359c-21.65-23.672-35.268-54.463-37.267-87.711H185.3a7.5 7.5 0 0 0 0-15h-19.551c.182-3.996.523-8.016 1.049-12.053 3.755-28.811 16.184-55.396 35.048-76.55l13.978 13.977c1.464 1.465 3.384 2.197 5.303 2.197s3.839-.732 5.303-2.197a7.5 7.5 0 0 0 0-10.606l-14.016-14.016a142.737 142.737 0 0 1 29.882-20.888 7.496 7.496 0 0 0 3.173-10.118z"/><path d="M308.283 226.278a7.5 7.5 0 0 0-7.5 7.5v44.55c-6.395 2.876-10.866 9.293-10.866 16.748 0 10.127 8.239 18.366 18.366 18.366 2.776 0 5.4-.637 7.762-1.745l50.037 50.037a7.476 7.476 0 0 0 5.304 2.197 7.5 7.5 0 0 0 5.304-12.803l-50.812-50.813c.496-1.662.771-3.418.771-5.239 0-7.454-4.471-13.872-10.865-16.747v-44.55a7.502 7.502 0 0 0-7.501-7.501zm-3.366 68.797a3.37 3.37 0 0 1 3.366-3.366c1.855 0 3.365 1.51 3.365 3.366s-1.51 3.366-3.365 3.366a3.37 3.37 0 0 1-3.366-3.366z"/></symbol><symbol id="calculator" viewBox="0 0 480 480"><path d="M392 0H88C65.92.026 48.026 17.92 48 40v400c.026 22.08 17.92 39.974 40 40h304c22.08-.026 39.974-17.92 40-40V40c-.026-22.08-17.92-39.974-40-40zM160 16h160v16H160V16zm224 32v80H96V48h288zm32 392c0 13.255-10.745 24-24 24H88c-13.255 0-24-10.745-24-24V40c0-13.255 10.745-24 24-24h56v16H88a8 8 0 0 0-8 8v96a8 8 0 0 0 8 8h304a8 8 0 0 0 8-8V40a8 8 0 0 0-8-8h-56V16h56c13.255 0 24 10.745 24 24v400z"/><path d="M240 160c-22.091 0-40 17.909-40 40 .026 22.08 17.92 39.974 40 40 22.091 0 40-17.909 40-40s-17.909-40-40-40zm0 64c-13.255 0-24-10.745-24-24s10.745-24 24-24 24 10.745 24 24-10.745 24-24 24zm104-64c-22.091 0-40 17.909-40 40 .026 22.08 17.92 39.974 40 40 22.091 0 40-17.909 40-40s-17.909-40-40-40zm0 64c-13.255 0-24-10.745-24-24s10.745-24 24-24 24 10.745 24 24-10.745 24-24 24zm-208-64c-22.091 0-40 17.909-40 40 .026 22.08 17.92 39.974 40 40 22.091 0 40-17.909 40-40s-17.909-40-40-40zm0 64c-13.255 0-24-10.745-24-24s10.745-24 24-24 24 10.745 24 24-10.745 24-24 24zm104 32c-22.091 0-40 17.909-40 40 .026 22.08 17.92 39.974 40 40 22.091 0 40-17.909 40-40s-17.909-40-40-40zm0 64c-13.255 0-24-10.745-24-24s10.745-24 24-24 24 10.745 24 24-10.745 24-24 24zm104-64c-22.091 0-40 17.909-40 40 .026 22.08 17.92 39.974 40 40 22.091 0 40-17.909 40-40s-17.909-40-40-40zm0 64c-13.255 0-24-10.745-24-24s10.745-24 24-24 24 10.745 24 24-10.745 24-24 24zm-208-64c-22.091 0-40 17.909-40 40 .026 22.08 17.92 39.974 40 40 22.091 0 40-17.909 40-40s-17.909-40-40-40zm0 64c-13.255 0-24-10.745-24-24s10.745-24 24-24 24 10.745 24 24-10.745 24-24 24zm104 32c-22.091 0-40 17.909-40 40 .026 22.08 17.92 39.974 40 40 22.091 0 40-17.909 40-40s-17.909-40-40-40zm0 64c-13.255 0-24-10.745-24-24s10.745-24 24-24 24 10.745 24 24-10.745 24-24 24zm-104-64c-22.091 0-40 17.909-40 40 .026 22.08 17.92 39.974 40 40 22.091 0 40-17.909 40-40s-17.909-40-40-40zm0 64c-13.255 0-24-10.745-24-24s10.745-24 24-24 24 10.745 24 24-10.745 24-24 24zm240-64h-64a8 8 0 0 0-8 8v80a8 8 0 0 0 8 8h64a8 8 0 0 0 8-8v-80a8 8 0 0 0-8-8zm-8 80h-48v-64h48v64zM320 96h16v16h-16zm32 0h16v16h-16zM144 80V64h-16v16h-16v16h16v16h16V96h16V80z"/><path d="M352 408h-8a8 8 0 0 0 0 16h8a8 8 0 0 0 0-16z"/></symbol><symbol id="arrow-right" viewBox="0 0 512.002 512.002"><path d="M388.425 241.951 151.609 5.79c-7.759-7.733-20.321-7.72-28.067.04-7.74 7.759-7.72 20.328.04 28.067l222.72 222.105-222.728 222.104c-7.759 7.74-7.779 20.301-.04 28.061a19.8 19.8 0 0 0 14.057 5.835 19.79 19.79 0 0 0 14.017-5.795l236.817-236.155c3.737-3.718 5.834-8.778 5.834-14.05s-2.103-10.326-5.834-14.051z"/></symbol></svg>
