<?xml version="1.0" encoding="utf-8"?><svg xmlns="http://www.w3.org/2000/svg" xmlns:xlink="http://www.w3.org/1999/xlink"><symbol fill="none" viewBox="0 0 28 50" id="arrowNext" xmlns="http://www.w3.org/2000/svg"><path d="M26.932 23.628L3.805.565A1.939 1.939 0 001.068 3.31L22.818 25 1.068 46.69a1.938 1.938 0 102.737 2.744l23.127-23.062a1.936 1.936 0 000-2.744z" fill="#fff"/></symbol><symbol fill="none" viewBox="0 0 50 50" id="arrowNextHover" xmlns="http://www.w3.org/2000/svg"><g clip-path="url(#bclip0_0_109)"><path d="M48.932 23.628L25.805.565A1.939 1.939 0 0023.07 3.31L43 23.187H3.601a1.601 1.601 0 00-.017 3.202L43 26.813 23.068 46.69a1.938 1.938 0 102.737 2.744l23.127-23.062a1.936 1.936 0 000-2.744z" fill="#fff"/></g><defs><clipPath id="bclip0_0_109"><path fill="#fff" d="M0 0h50v50H0z"/></clipPath></defs></symbol><symbol viewBox="0 0 28 50" id="arrowPrev" xmlns="http://www.w3.org/2000/svg"><path d="M1.068 23.628L24.195.565A1.939 1.939 0 0126.93 3.31L5.181 25l21.751 21.69a1.938 1.938 0 11-2.737 2.744L1.068 26.372a1.936 1.936 0 010-2.744z" fill="#fff"/></symbol><symbol fill="none" viewBox="0 0 50 50" id="arrowPrevHover" xmlns="http://www.w3.org/2000/svg"><g clip-path="url(#dclip0_0_113)"><path d="M1.068 23.628L24.195.565A1.939 1.939 0 0126.93 3.31L7 23.187h39.399a1.601 1.601 0 01.017 3.202L7 26.813 26.932 46.69a1.938 1.938 0 11-2.737 2.744L1.068 26.372a1.936 1.936 0 010-2.744z" fill="#fff"/></g><defs><clipPath id="dclip0_0_113"><path fill="#fff" transform="matrix(-1 0 0 1 50 0)" d="M0 0h50v50H0z"/></clipPath></defs></symbol><symbol viewBox="0 0 75 75" fill="none" id="icon1" xmlns="http://www.w3.org/2000/svg"><g clip-path="url(#ea)" fill="#0ED984"><path d="M73.336 12.648L38.35.148a2.565 2.565 0 00-1.708 0l-34.978 12.5a2.5 2.5 0 000 4.703l17.087 6.105v7.794c0 4.86 16.831 5 18.75 5 1.919 0 18.75-.14 18.75-5v-7.794L60 22.125V25a2.5 2.5 0 002.5 2.5H65a2.5 2.5 0 002.5-2.5v-3.75a3.697 3.697 0 00-.407-1.664l6.25-2.235a2.5 2.5 0 000-4.703h-.007zM53.75 28.5c-4.761-2.168-14.794-2.25-16.25-2.25-1.456 0-11.489.082-16.25 2.25V17.61C22 16.648 27.895 15 37.5 15s15.5 1.648 16.25 2.61V28.5zM37.5 33.75c-9.25 0-15.059-1.528-16.145-2.5 1.086-.973 6.898-2.5 16.145-2.5 9.248 0 15.059 1.527 16.145 2.5-1.086.972-6.895 2.5-16.145 2.5zm23.086-14.494l-4.336 1.546V17.5c0-4.86-16.831-5-18.75-5-1.919 0-18.75.14-18.75 5v3.301L2.5 15 37.517 2.5 62.5 11.428v6.302c-.79.28-1.464.818-1.914 1.526zM65 25h-2.5v-3.75a1.25 1.25 0 012.5 0V25zm0-7.32v-5.359L72.5 15 65 17.68zm6.25 21.07c-.075 0-.15.006-.224.02A209.3 209.3 0 0137.5 41.25a209.3 209.3 0 01-33.526-2.48 1.41 1.41 0 00-.224-.02c-.875 0-3.75.99-3.75 13.75s2.875 13.75 3.75 13.75c.075-.002.15-.01.224-.023a195.496 195.496 0 0125.75-2.347l-2.44 5.852a2.49 2.49 0 003.303 3.21l.957-.41.413.952a2.486 2.486 0 002.3 1.516h.03a2.491 2.491 0 002.292-1.56l2.171-5.198 2.164 5.178A2.5 2.5 0 0043.212 75h.038a2.483 2.483 0 002.29-1.5l.418-.959.94.404a2.491 2.491 0 003.312-3.224l-2.392-5.737c7.776.275 15.53 1.026 23.215 2.25.071.012.144.017.217.016.875 0 3.75-.991 3.75-13.75s-2.875-13.75-3.75-13.75zM41.5 43.712c.52 1.91.821 3.87.901 5.847a8.674 8.674 0 00-8.701.808 33.77 33.77 0 00-.859-6.665 222.666 222.666 0 008.659.01zM38.75 63.75A6.25 6.25 0 1145 57.5a6.257 6.257 0 01-6.25 6.25zm-35-21.875A35.058 35.058 0 015 52.5a35.06 35.06 0 01-1.25 10.625A35.06 35.06 0 012.5 52.5a35.058 35.058 0 011.25-10.625zm2.525 21.462C6.959 61.355 7.5 58.037 7.5 52.5c0-5.538-.541-8.855-1.226-10.84a219.313 219.313 0 0023.956 1.979 32.18 32.18 0 011.02 8.86c0 .182 0 .355-.008.528a8.66 8.66 0 00-.402 8.19l-.055.133c-8.201.2-16.384.865-24.51 1.99v-.003zM34.259 72.5l-.913-2.1a1.25 1.25 0 00-1.638-.65l-2.104.93 2.931-7.028a8.741 8.741 0 004.415 2.413L34.259 72.5zm11.533-2.75a1.25 1.25 0 00-1.638.65l-.925 2.079-2.68-6.417a8.75 8.75 0 004.419-2.413l2.924 7-2.1-.9zM71 63.687a202.426 202.426 0 00-24.25-2.25l-.089-.215a8.699 8.699 0 00-1.685-9.857 34.788 34.788 0 00-.892-7.701A208.64 208.64 0 0071 41.31c.58.985 1.5 4.881 1.5 11.189 0 6.307-.926 10.202-1.5 11.187z"/></g><defs><clipPath id="ea"><path fill="#fff" d="M0 0h75v75H0z"/></clipPath></defs></symbol><symbol viewBox="0 0 75 75" fill="none" id="icon2" xmlns="http://www.w3.org/2000/svg"><path d="M73.901 68.067h-4.525v-17.14a1.099 1.099 0 10-2.197 0v17.14h-9.64V30.312h9.64V55.8a1.099 1.099 0 002.197 0V29.213c0-.606-.491-1.098-1.098-1.098H56.44c-.606 0-1.098.492-1.098 1.098v38.854h-2.538V35.132c0-.606-.492-1.098-1.099-1.098H39.868c-.607 0-1.099.492-1.099 1.098v32.935h-2.538V44.01c0-.607-.492-1.099-1.099-1.099H23.296c-.607 0-1.099.492-1.099 1.099v24.056h-2.538V51.114a1.1 1.1 0 00-1.098-1.1H6.722a1.1 1.1 0 00-1.099 1.1v16.953H1.099c-.607 0-1.099.492-1.099 1.099V73.9A1.1 1.1 0 001.099 75h21.865a1.099 1.099 0 000-2.197H2.197v-2.539h70.606v2.539H18.09a1.099 1.099 0 000 2.197H73.9c.607 0 1.099-.492 1.099-1.099v-4.736c0-.606-.492-1.098-1.099-1.098zM40.966 36.23h9.64v31.836h-9.64V36.23zm-16.573 8.878h9.64v22.958h-9.64V45.109zM7.82 52.212h9.64v15.855H7.82V52.212zM6.574 40.078h16.72c.97 0 1.902-.41 2.556-1.124l13.619-14.857h9.277c.926 0 1.796-.36 2.45-1.015l11.249-11.248v3.47a1.1 1.1 0 001.099 1.1h4.734c.607 0 1.098-.493 1.098-1.1V3.467A3.47 3.47 0 0065.911 0H54.073c-.606 0-1.098.492-1.098 1.099v4.735a1.1 1.1 0 001.098 1.1h3.47L47.31 17.164h-9.367c-.97 0-1.9.41-2.555 1.124L21.77 33.147h-3.03a1.099 1.099 0 000 2.197h3.513a1.1 1.1 0 00.81-.357L37.01 19.773c.24-.26.58-.41.935-.41h9.822c.29 0 .57-.116.776-.322l12.43-12.43a1.099 1.099 0 00-.777-1.875h-5.023V2.197H65.91c.699 0 1.268.57 1.268 1.269v10.74h-2.537V9.182a1.099 1.099 0 00-1.875-.777L49.642 21.528a1.26 1.26 0 01-.897.371h-9.76c-.309 0-.602.13-.81.357L24.23 37.47c-.24.261-.58.41-.936.41H7.673v-2.536h10.94a1.099 1.099 0 000-2.197H6.574c-.607 0-1.098.491-1.098 1.098v4.735c0 .606.491 1.098 1.098 1.098z" fill="#3577F6"/></symbol><symbol viewBox="0 0 75 75" fill="none" id="icon3" xmlns="http://www.w3.org/2000/svg"><path d="M69.14 55.078c0-7.264-4.749-13.432-11.303-15.584 2.567-1.673 4.272-4.566 4.272-7.853 0-5.17-4.206-9.375-9.375-9.375-.495 0-.978.05-1.453.124.066-.19.15-.375.206-.567l2.42-.57v-7.291l-2.417-.57a14.357 14.357 0 00-1.14-2.745l1.307-2.113-5.112-5.114-2.113 1.307a14.506 14.506 0 00-2.747-1.139l-.569-2.416h-7.232l-.569 2.416a14.46 14.46 0 00-2.747 1.14L28.455 3.42l-5.112 5.114 1.306 2.112a14.512 14.512 0 00-1.139 2.746l-2.416.57v7.294l2.417.569c.058.191.141.376.207.566a9.253 9.253 0 00-1.452-.125c-5.17 0-9.375 4.206-9.375 9.375 0 3.287 1.705 6.18 4.272 7.854C10.61 41.645 5.86 47.814 5.86 55.078v4.688h18.196a16.301 16.301 0 00-2.961 9.375v4.687h32.812v-4.687c0-3.486-1.1-6.715-2.961-9.375H69.14v-4.688zm-14.062-12.89c0 1.905-1.073 3.515-2.344 3.515-1.27 0-2.343-1.61-2.343-3.516 0-.332.047-.662.117-.989a14.104 14.104 0 012.226-.182c.76 0 1.503.077 2.23.194.068.324.114.65.114.977zM37.5 52.733a7.038 7.038 0 01-7.031-7.03 7.038 7.038 0 017.031-7.032 7.038 7.038 0 017.031 7.031 7.038 7.038 0 01-7.031 7.031zM28.378 42.42c.1.049.2.093.299.144a9.338 9.338 0 00-.552 3.14c0 .468.046.925.113 1.375l-1.561 3.434-2.841-3.55 4.542-4.543zm9.122-6.09a9.372 9.372 0 00-7.773 4.14c-.76-.389-1.548-.71-2.357-.976 2.567-1.674 4.27-4.566 4.27-7.852 0-.218-.017-.432-.032-.645.555.245 1.125.457 1.707.632l.569 2.416h7.232l.569-2.416a14.692 14.692 0 001.707-.632c-.015.213-.033.427-.033.645 0 3.287 1.704 6.178 4.27 7.852-.807.264-1.595.589-2.355.976a9.375 9.375 0 00-7.774-4.14zm22.266-4.688a7.038 7.038 0 01-7.032 7.03 7.038 7.038 0 01-7.03-7.03 7.038 7.038 0 017.03-7.032 7.038 7.038 0 017.032 7.032zM25.597 20.564l-.17-.697-1.99-.469v-3.581l1.988-.468.171-.697a12.143 12.143 0 011.418-3.42l.372-.614L26.31 8.88l2.49-2.49 1.738 1.076.613-.373a12.147 12.147 0 013.422-1.418l.697-.17.47-1.99h3.52l.468 1.988.697.171a12.22 12.22 0 013.422 1.418l.613.373 1.738-1.076 2.49 2.49-1.075 1.74.372.612a12.145 12.145 0 011.418 3.421l.17.697 1.99.469v3.581l-1.988.468-.171.697c-.237.97-.621 1.914-1.108 2.822a9.435 9.435 0 00-4.18 4.574l-.268.162a12.15 12.15 0 01-3.422 1.418l-.697.17-.468 1.988h-3.52l-.468-1.989-.697-.17a12.17 12.17 0 01-3.422-1.419l-.267-.161a9.432 9.432 0 00-4.181-4.575 11.974 11.974 0 01-1.109-2.82zM15.234 31.641a7.038 7.038 0 017.032-7.032 7.038 7.038 0 017.03 7.032 7.038 7.038 0 01-7.03 7.03 7.038 7.038 0 01-7.032-7.03zm10.736 9.873l-3.704 3.704-3.694-3.694a13.98 13.98 0 013.694-.508c1.26 0 2.504.17 3.704.498zm-5.275 5.448l-2.84 3.55-3.272-7.198c.504-.33 1.033-.621 1.58-.886l4.532 4.534zM8.203 55.078c0-4.052 1.733-7.7 4.486-10.268l4.613 10.147 4.964-6.206 4.964 6.206 2.113-4.648a9.443 9.443 0 003.054 3.25 16.41 16.41 0 00-6.358 3.864H14.062v-7.031H11.72v7.031H8.203v-2.345zm29.297 0c2.037 0 3.968.444 5.718 1.227L37.5 69.674l-5.718-13.37a13.977 13.977 0 015.718-1.226zM23.437 69.141c0-4.878 2.498-9.18 6.28-11.703l6.006 14.046h-6.426v-7.03h-2.344v7.03h-3.515v-2.343zm28.125 2.343h-3.515v-7.03h-2.344v7.03h-6.426l6.007-14.046c3.781 2.523 6.279 6.825 6.279 11.703v2.343zm15.235-14.062H63.28V50.39h-2.343v7.03H48.96a16.418 16.418 0 00-6.358-3.864c2.568-1.673 4.273-4.567 4.273-7.854a9.325 9.325 0 00-.552-3.138 13.803 13.803 0 011.757-.755c-.007.125-.033.25-.033.377 0 3.231 2.102 5.86 4.687 5.86 2.585 0 4.688-2.629 4.688-5.86 0-.121-.025-.24-.032-.363 5.47 1.928 9.407 7.133 9.407 13.254v2.344z" fill="#D72DF3"/><path d="M37.5 22.266a4.692 4.692 0 004.688-4.688 4.692 4.692 0 00-4.688-4.687 4.692 4.692 0 00-4.688 4.687 4.692 4.692 0 004.688 4.688zm0-7.032a2.346 2.346 0 012.344 2.344 2.346 2.346 0 01-2.344 2.344 2.346 2.346 0 01-2.344-2.344 2.346 2.346 0 012.344-2.344z" fill="#D72DF3"/><path d="M37.5 26.953c5.17 0 9.375-4.206 9.375-9.375S42.669 8.203 37.5 8.203c-5.17 0-9.375 4.206-9.375 9.375 0 5.17 4.206 9.375 9.375 9.375zm0-16.406a7.038 7.038 0 017.031 7.031A7.038 7.038 0 0137.5 24.61a7.038 7.038 0 01-7.031-7.03 7.038 7.038 0 017.031-7.032z" fill="#D72DF3"/></symbol><symbol viewBox="0 0 25 25" id="iconGrad" xmlns="http://www.w3.org/2000/svg"><path d="M23.046 13.579v-3.84l1.027-.844a.378.378 0 00.145-.32.408.408 0 00-.176-.309L12.714.844a.406.406 0 00-.43 0L.956 8.266a.408.408 0 00-.176.309.378.378 0 00.145.32l4.152 3.399v.222a8.203 8.203 0 1014.844 0v-.223l2.344-1.917v3.203l-.957 1.914a1.173 1.173 0 001.05 1.695h.594a1.171 1.171 0 001.051-1.695l-.957-1.914zM9.382 15.625c.013-1.562.293-3.11.828-4.578.76-.075 1.525-.111 2.29-.109.764-.002 1.528.034 2.288.11.535 1.467.815 3.015.828 4.578H9.382zm6.234.782a14.755 14.755 0 01-.488 3.566 8.05 8.05 0 00-5.258 0 14.754 14.754 0 01-.488-3.566h6.234zm-3.117-6.25c-2.672 0-5.355.426-6.64 1.242V8.985c0-.531 2.343-1.563 6.64-1.563s6.64 1.032 6.64 1.563v2.414c-1.284-.816-3.968-1.242-6.64-1.242zm-3.164.996a14.993 14.993 0 00-.734 4.473H5.089a7.315 7.315 0 01.73-2.848.381.381 0 00.04-.172v-.105c0-.38 1.21-1.016 3.476-1.348zm-4.238 5.254H8.6c.018 1.301.2 2.595.543 3.851-.64.289-1.24.658-1.785 1.098a7.38 7.38 0 01-2.262-4.95zm2.863 5.468c.44-.343.917-.635 1.422-.87a7 7 0 001.188 2.167 7.37 7.37 0 01-2.61-1.297zm4.54 1.563c-.876 0-1.786-1.008-2.395-2.719a7.26 7.26 0 014.789 0c-.61 1.711-1.52 2.719-2.395 2.719zm1.929-.266a7 7 0 001.187-2.168 7.39 7.39 0 011.422.871 7.371 7.371 0 01-2.61 1.297zm3.21-1.816a8.249 8.249 0 00-1.784-1.098c.342-1.256.524-2.55.543-3.851h3.504a7.38 7.38 0 01-2.262 4.949zm-1.241-5.73a14.993 14.993 0 00-.735-4.473c2.266.332 3.477.969 3.477 1.348v.105c0 .06.013.118.039.172.434.89.682 1.859.73 2.848h-3.511zm3.523-4.34V8.985c0-1.54-3.734-2.344-7.422-2.344-3.687 0-7.422.805-7.422 2.344v2.3L1.831 8.63 12.5 1.641 23.167 8.63l-3.246 2.657zm3.363 4.937a.378.378 0 01-.332.184h-.593a.378.378 0 01-.332-.184.394.394 0 01-.02-.383l.648-1.293.649 1.293a.394.394 0 01-.02.383z"/></symbol></svg>