<svg viewBox="0 0 75 75" fill="none" xmlns="http://www.w3.org/2000/svg"><path d="M69.14 55.078c0-7.264-4.749-13.432-11.303-15.584 2.567-1.673 4.272-4.566 4.272-7.853 0-5.17-4.206-9.375-9.375-9.375-.495 0-.978.05-1.453.124.066-.19.15-.375.206-.567l2.42-.57v-7.291l-2.417-.57a14.357 14.357 0 0 0-1.14-2.745l1.307-2.113-5.112-5.114-2.113 1.307a14.506 14.506 0 0 0-2.747-1.139l-.569-2.416h-7.232l-.569 2.416a14.46 14.46 0 0 0-2.747 1.14L28.455 3.42l-5.112 5.114 1.306 2.112a14.512 14.512 0 0 0-1.139 2.746l-2.416.57v7.294l2.417.569c.058.191.141.376.207.566a9.253 9.253 0 0 0-1.452-.125c-5.17 0-9.375 4.206-9.375 9.375 0 3.287 1.705 6.18 4.272 7.854C10.61 41.645 5.86 47.814 5.86 55.078v4.688h18.196a16.301 16.301 0 0 0-2.961 9.375v4.687h32.812v-4.687c0-3.486-1.1-6.715-2.961-9.375H69.14v-4.688Zm-14.062-12.89c0 1.905-1.073 3.515-2.344 3.515-1.27 0-2.343-1.61-2.343-3.516 0-.332.047-.662.117-.989a14.104 14.104 0 0 1 2.226-.182c.76 0 1.503.077 2.23.194.068.324.114.65.114.977ZM37.5 52.733a7.038 7.038 0 0 1-7.031-7.03 7.038 7.038 0 0 1 7.031-7.032 7.038 7.038 0 0 1 7.031 7.031 7.038 7.038 0 0 1-7.031 7.031ZM28.378 42.42c.1.049.2.093.299.144a9.338 9.338 0 0 0-.552 3.14c0 .468.046.925.113 1.375l-1.561 3.434-2.841-3.55 4.542-4.543Zm9.122-6.09a9.372 9.372 0 0 0-7.773 4.14c-.76-.389-1.548-.71-2.357-.976 2.567-1.674 4.27-4.566 4.27-7.852 0-.218-.017-.432-.032-.645.555.245 1.125.457 1.707.632l.569 2.416h7.232l.569-2.416a14.692 14.692 0 0 0 1.707-.632c-.015.213-.033.427-.033.645 0 3.287 1.704 6.178 4.27 7.852-.807.264-1.595.589-2.355.976a9.375 9.375 0 0 0-7.774-4.14Zm22.266-4.688a7.038 7.038 0 0 1-7.032 7.03 7.038 7.038 0 0 1-7.03-7.03 7.038 7.038 0 0 1 7.03-7.032 7.038 7.038 0 0 1 7.032 7.032ZM25.597 20.564l-.17-.697-1.99-.469v-3.581l1.988-.468.171-.697a12.143 12.143 0 0 1 1.418-3.42l.372-.614L26.31 8.88l2.49-2.49 1.738 1.076.613-.373a12.147 12.147 0 0 1 3.422-1.418l.697-.17.47-1.99h3.52l.468 1.988.697.171a12.22 12.22 0 0 1 3.422 1.418l.613.373 1.738-1.076 2.49 2.49-1.075 1.74.372.612a12.145 12.145 0 0 1 1.418 3.421l.17.697 1.99.469v3.581l-1.988.468-.171.697c-.237.97-.621 1.914-1.108 2.822a9.435 9.435 0 0 0-4.18 4.574l-.268.162a12.15 12.15 0 0 1-3.422 1.418l-.697.17-.468 1.988h-3.52l-.468-1.989-.697-.17a12.17 12.17 0 0 1-3.422-1.419l-.267-.161a9.432 9.432 0 0 0-4.181-4.575 11.974 11.974 0 0 1-1.109-2.82ZM15.234 31.641a7.038 7.038 0 0 1 7.032-7.032 7.038 7.038 0 0 1 7.03 7.032 7.038 7.038 0 0 1-7.03 7.03 7.038 7.038 0 0 1-7.032-7.03Zm10.736 9.873-3.704 3.704-3.694-3.694a13.98 13.98 0 0 1 3.694-.508c1.26 0 2.504.17 3.704.498Zm-5.275 5.448-2.84 3.55-3.272-7.198c.504-.33 1.033-.621 1.58-.886l4.532 4.534ZM8.203 55.078c0-4.052 1.733-7.7 4.486-10.268l4.613 10.147 4.964-6.206 4.964 6.206 2.113-4.648a9.443 9.443 0 0 0 3.054 3.25 16.41 16.41 0 0 0-6.358 3.864H14.062v-7.031H11.72v7.031H8.203v-2.345Zm29.297 0c2.037 0 3.968.444 5.718 1.227L37.5 69.674l-5.718-13.37a13.977 13.977 0 0 1 5.718-1.226ZM23.437 69.141c0-4.878 2.498-9.18 6.28-11.703l6.006 14.046h-6.426v-7.03h-2.344v7.03h-3.515v-2.343Zm28.125 2.343h-3.515v-7.03h-2.344v7.03h-6.426l6.007-14.046c3.781 2.523 6.279 6.825 6.279 11.703v2.343Zm15.235-14.062H63.28V50.39h-2.343v7.03H48.96a16.418 16.418 0 0 0-6.358-3.864c2.568-1.673 4.273-4.567 4.273-7.854a9.325 9.325 0 0 0-.552-3.138 13.803 13.803 0 0 1 1.757-.755c-.007.125-.033.25-.033.377 0 3.231 2.102 5.86 4.687 5.86 2.585 0 4.688-2.629 4.688-5.86 0-.121-.025-.24-.032-.363 5.47 1.928 9.407 7.133 9.407 13.254v2.344Z" fill="#D72DF3"/><path d="M37.5 22.266a4.692 4.692 0 0 0 4.688-4.688 4.692 4.692 0 0 0-4.688-4.687 4.692 4.692 0 0 0-4.688 4.687 4.692 4.692 0 0 0 4.688 4.688Zm0-7.032a2.346 2.346 0 0 1 2.344 2.344 2.346 2.346 0 0 1-2.344 2.344 2.346 2.346 0 0 1-2.344-2.344 2.346 2.346 0 0 1 2.344-2.344Z" fill="#D72DF3"/><path d="M37.5 26.953c5.17 0 9.375-4.206 9.375-9.375S42.669 8.203 37.5 8.203c-5.17 0-9.375 4.206-9.375 9.375 0 5.17 4.206 9.375 9.375 9.375Zm0-16.406a7.038 7.038 0 0 1 7.031 7.031A7.038 7.038 0 0 1 37.5 24.61a7.038 7.038 0 0 1-7.031-7.03 7.038 7.038 0 0 1 7.031-7.032Z" fill="#D72DF3"/></svg>