<svg viewBox="0 0 75 75" fill="none" xmlns="http://www.w3.org/2000/svg"><path d="M73.901 68.067h-4.525v-17.14a1.099 1.099 0 1 0-2.197 0v17.14h-9.64V30.312h9.64V55.8a1.099 1.099 0 0 0 2.197 0V29.213c0-.606-.491-1.098-1.098-1.098H56.44c-.606 0-1.098.492-1.098 1.098v38.854h-2.538V35.132c0-.606-.492-1.098-1.099-1.098H39.868c-.607 0-1.099.492-1.099 1.098v32.935h-2.538V44.01c0-.607-.492-1.099-1.099-1.099H23.296c-.607 0-1.099.492-1.099 1.099v24.056h-2.538V51.114a1.1 1.1 0 0 0-1.098-1.1H6.722a1.1 1.1 0 0 0-1.099 1.1v16.953H1.099c-.607 0-1.099.492-1.099 1.099V73.9A1.1 1.1 0 0 0 1.099 75h21.865a1.099 1.099 0 0 0 0-2.197H2.197v-2.539h70.606v2.539H18.09a1.099 1.099 0 0 0 0 2.197H73.9c.607 0 1.099-.492 1.099-1.099v-4.736c0-.606-.492-1.098-1.099-1.098ZM40.966 36.23h9.64v31.836h-9.64V36.23Zm-16.573 8.878h9.64v22.958h-9.64V45.109ZM7.82 52.212h9.64v15.855H7.82V52.212ZM6.574 40.078h16.72c.97 0 1.902-.41 2.556-1.124l13.619-14.857h9.277c.926 0 1.796-.36 2.45-1.015l11.249-11.248v3.47a1.1 1.1 0 0 0 1.099 1.1h4.734c.607 0 1.098-.493 1.098-1.1V3.467A3.47 3.47 0 0 0 65.911 0H54.073c-.606 0-1.098.492-1.098 1.099v4.735a1.1 1.1 0 0 0 1.098 1.1h3.47L47.31 17.164h-9.367c-.97 0-1.9.41-2.555 1.124L21.77 33.147h-3.03a1.099 1.099 0 0 0 0 2.197h3.513a1.1 1.1 0 0 0 .81-.357L37.01 19.773c.24-.26.58-.41.935-.41h9.822c.29 0 .57-.116.776-.322l12.43-12.43a1.099 1.099 0 0 0-.777-1.875h-5.023V2.197H65.91c.699 0 1.268.57 1.268 1.269v10.74h-2.537V9.182a1.099 1.099 0 0 0-1.875-.777L49.642 21.528a1.26 1.26 0 0 1-.897.371h-9.76c-.309 0-.602.13-.81.357L24.23 37.47c-.24.261-.58.41-.936.41H7.673v-2.536h10.94a1.099 1.099 0 0 0 0-2.197H6.574c-.607 0-1.098.491-1.098 1.098v4.735c0 .606.491 1.098 1.098 1.098Z" fill="#3577F6"/></svg>