<svg viewBox="0 0 75 75" fill="none" xmlns="http://www.w3.org/2000/svg"><g clip-path="url(#a)" fill="#0ED984"><path d="M73.336 12.648 38.35.148a2.565 2.565 0 0 0-1.708 0l-34.978 12.5a2.5 2.5 0 0 0 0 4.703l17.087 6.105v7.794c0 4.86 16.831 5 18.75 5 1.919 0 18.75-.14 18.75-5v-7.794L60 22.125V25a2.5 2.5 0 0 0 2.5 2.5H65a2.5 2.5 0 0 0 2.5-2.5v-3.75a3.697 3.697 0 0 0-.407-1.664l6.25-2.235a2.5 2.5 0 0 0 0-4.703h-.007ZM53.75 28.5c-4.761-2.168-14.794-2.25-16.25-2.25-1.456 0-11.489.082-16.25 2.25V17.61C22 16.648 27.895 15 37.5 15s15.5 1.648 16.25 2.61V28.5ZM37.5 33.75c-9.25 0-15.059-1.528-16.145-2.5 1.086-.973 6.898-2.5 16.145-2.5 9.248 0 15.059 1.527 16.145 2.5-1.086.972-6.895 2.5-16.145 2.5Zm23.086-14.494-4.336 1.546V17.5c0-4.86-16.831-5-18.75-5-1.919 0-18.75.14-18.75 5v3.301L2.5 15 37.517 2.5 62.5 11.428v6.302c-.79.28-1.464.818-1.914 1.526ZM65 25h-2.5v-3.75a1.25 1.25 0 0 1 2.5 0V25Zm0-7.32v-5.359L72.5 15 65 17.68Zm6.25 21.07c-.075 0-.15.006-.224.02A209.3 209.3 0 0 1 37.5 41.25a209.3 209.3 0 0 1-33.526-2.48 1.41 1.41 0 0 0-.224-.02c-.875 0-3.75.99-3.75 13.75s2.875 13.75 3.75 13.75c.075-.002.15-.01.224-.023a195.496 195.496 0 0 1 25.75-2.347l-2.44 5.852a2.49 2.49 0 0 0 3.303 3.21l.957-.41.413.952a2.486 2.486 0 0 0 2.3 1.516h.03a2.491 2.491 0 0 0 2.292-1.56l2.171-5.198 2.164 5.178A2.5 2.5 0 0 0 43.212 75h.038a2.483 2.483 0 0 0 2.29-1.5l.418-.959.94.404a2.491 2.491 0 0 0 3.312-3.224l-2.392-5.737c7.776.275 15.53 1.026 23.215 2.25.071.012.144.017.217.016.875 0 3.75-.991 3.75-13.75s-2.875-13.75-3.75-13.75ZM41.5 43.712c.52 1.91.821 3.87.901 5.847a8.674 8.674 0 0 0-8.701.808 33.77 33.77 0 0 0-.859-6.665 222.666 222.666 0 0 0 8.659.01ZM38.75 63.75A6.25 6.25 0 1 1 45 57.5a6.257 6.257 0 0 1-6.25 6.25Zm-35-21.875A35.058 35.058 0 0 1 5 52.5a35.06 35.06 0 0 1-1.25 10.625A35.06 35.06 0 0 1 2.5 52.5a35.058 35.058 0 0 1 1.25-10.625Zm2.525 21.462C6.959 61.355 7.5 58.037 7.5 52.5c0-5.538-.541-8.855-1.226-10.84a219.313 219.313 0 0 0 23.956 1.979 32.18 32.18 0 0 1 1.02 8.86c0 .182 0 .355-.008.528a8.66 8.66 0 0 0-.402 8.19l-.055.133c-8.201.2-16.384.865-24.51 1.99v-.003ZM34.259 72.5l-.913-2.1a1.25 1.25 0 0 0-1.638-.65l-2.104.93 2.931-7.028a8.741 8.741 0 0 0 4.415 2.413L34.259 72.5Zm11.533-2.75a1.25 1.25 0 0 0-1.638.65l-.925 2.079-2.68-6.417a8.75 8.75 0 0 0 4.419-2.413l2.924 7-2.1-.9ZM71 63.687a202.426 202.426 0 0 0-24.25-2.25l-.089-.215a8.699 8.699 0 0 0-1.685-9.857 34.788 34.788 0 0 0-.892-7.701A208.64 208.64 0 0 0 71 41.31c.58.985 1.5 4.881 1.5 11.189 0 6.307-.926 10.202-1.5 11.187Z"/></g><defs><clipPath id="a"><path fill="#fff" d="M0 0h75v75H0z"/></clipPath></defs></svg>